<svg width="105" height="39" viewBox="0 0 105 39" fill="none" xmlns="http://www.w3.org/2000/svg">
<path d="M33.9282 34.8373C29.9447 34.8373 27.0054 32.5257 27.0054 27.9386C27.0054 21.0761 33.1547 14.1413 39.4974 14.1413C42.7074 14.1413 45.1052 15.7666 45.1052 18.2227C45.1052 20.4621 41.7405 22.4486 35.9393 23.3877C35.0884 23.496 34.2762 24.2545 34.1215 25.013C34.0055 25.916 33.9282 26.7106 33.9282 27.433C33.9282 30.1057 35.6685 31.0809 37.2155 31.0809C39.3426 31.0809 41.8565 29.0222 43.4035 25.1936C43.7129 24.4351 44.293 24.6518 44.1383 25.2297C43.5582 27.433 39.8067 34.8373 33.9282 34.8373ZM34.779 21.9068C34.5856 22.6653 35.0884 23.171 35.9393 22.9542C39.3813 21.9429 40.5029 20.1009 40.5029 17.8976C40.5029 15.9472 39.9614 15.1887 39.1493 15.1887C37.3316 15.1887 35.7459 18.4394 34.779 21.9068Z" fill="#353535"/>
<path d="M48.6484 23.5923C49.7313 20.9196 49.6153 19.6554 48.7644 19.6193C47.4495 19.5832 45.7478 22.2921 44.3555 25.001C44.1234 25.4344 44.0074 25.5789 43.814 25.5427C43.5433 25.5427 43.3886 25.326 43.6593 24.712C44.6649 22.4004 47.9135 15.4295 53.0573 15.6101C56.1513 15.7185 57.0408 17.1993 57.0021 18.8608C56.9635 20.0888 56.3447 21.064 55.1457 23.9174L53.4441 27.9988C53.2507 28.4684 53.9855 28.4684 54.1789 28.0349C58.1624 19.0775 60.1735 15.6823 63.8476 15.6823C65.6653 15.6823 66.4388 16.6575 66.4388 17.8495C66.4388 19.6554 65.0465 21.2807 63.2288 21.2807C62.2232 21.2807 61.6818 20.7751 60.9083 20.7751C59.8641 20.7751 57.2729 22.1115 54.0629 29.3713C53.1733 31.6468 53.4441 33.2721 53.4054 33.8862C53.3667 35.4032 51.2009 36.3423 49.4219 36.3423C46.7146 36.3423 44.6649 35.1503 45.9798 31.5384L48.6484 23.5923Z" fill="#353535"/>
<path d="M66.7655 23.8219C67.8504 20.9606 67.7342 19.6073 66.8818 19.5686C65.5644 19.5299 63.8596 22.4299 62.4647 25.3298C62.2322 25.7938 62.116 25.9485 61.9223 25.9098C61.651 25.9098 61.496 25.6778 61.7673 25.0205C62.7747 22.5459 66.0293 15.0834 71.1826 15.2767C74.2823 15.3927 75.1734 16.978 75.1347 18.7566C75.096 20.0713 74.476 21.1152 73.2749 24.1699L71.57 28.5391C71.3763 29.0418 72.1125 29.0418 72.3062 28.5778C76.2971 18.9886 78.3119 15.354 81.9928 15.354C83.8138 15.354 84.5887 16.398 84.5887 17.674C84.5887 19.6073 83.1939 21.3472 81.3728 21.3472C80.3654 21.3472 79.823 20.8059 79.048 20.8059C78.0019 20.8059 75.4059 22.2366 72.19 30.0084C71.2988 32.4444 71.57 34.1844 71.5313 34.8417C71.4926 36.4656 69.3228 37.471 67.5405 37.471C64.8282 37.471 62.7747 36.195 64.092 32.3284L66.7655 23.8219Z" fill="#353535"/>
<path d="M83.6059 35.0988C80.7862 35.0988 79.048 32.539 79.048 28.9477C79.048 21.6122 85.3826 13.3599 91.2151 13.3599C93.7644 13.3599 94.6528 15.1937 95.039 17.1804C95.1549 18.0209 95.4639 18.0591 95.7343 17.2568L96.1205 16.2253C96.4295 15.423 96.8544 15.0027 97.9745 15.0027C100.408 15.0027 101.76 12.9778 102.957 12.9778C103.459 12.9778 104.039 13.2071 103.768 13.8948C102.455 17.1422 101.065 20.4661 99.9831 23.8282L98.9788 26.6172C97.9746 29.4826 98.1291 30.8198 98.9788 30.8198C100.253 30.858 101.876 27.9544 103.189 25.0507C103.421 24.5923 103.537 24.4395 103.73 24.4395C104 24.4395 104.155 24.6687 103.884 25.3564C102.919 27.8015 99.9058 35.2516 94.7686 35.1752C91.6786 35.0988 90.713 33.5706 90.7516 31.8131C90.7516 30.5141 91.4855 29.4826 92.6829 26.5025L92.9919 25.7766C93.1464 25.3182 92.9919 25.1654 92.7601 25.1654C92.567 25.1654 92.3739 25.28 92.1807 25.662C90.0949 29.8646 87.6615 35.0988 83.6059 35.0988ZM85.9234 28.1072C85.9234 29.6354 86.3096 30.3995 87.0822 30.3995C88.8589 30.3995 91.8331 26.1587 92.7987 23.0641C93.6871 20.1604 93.7644 18.5558 93.7644 17.8681C93.7644 16.0343 93.3395 14.9263 92.3352 14.9263C89.5928 14.9263 85.9234 23.6753 85.9234 28.1072Z" fill="#353535"/>
<path d="M9.47017 25.4597C9.05017 26.9605 8.21016 29.8548 8.21016 31.1412C8.21016 32.374 8.71416 32.91 9.51218 32.91C11.1082 32.91 12.6622 30.3908 14.5102 25.4061C14.6782 24.9237 15.0142 24.7629 15.1403 24.7629C15.3503 24.7629 15.4343 25.0309 15.3083 25.5133C14.0902 30.3908 9.30217 38.7523 4.5981 38.7523C1.61606 38.7523 0.314042 36.7692 0.314042 33.714C0.314042 31.5164 1.02805 28.7293 2.07807 25.0845L5.90012 11.5775C6.25258 10.7612 6.39515 9.44417 5.73329 9.68808C5.07144 9.932 3.13764 9.95351 3.13764 9.95351C2.69769 9.95351 1.42784 9.92042 1.32051 9.8208C1.03454 9.55537 -0.340892 7.8301 0.0791139 7.8301C5.66519 7.8301 12.8722 5.62793 15.2243 0.643192C15.4763 0.214397 15.7703 0 16.0223 0C16.3163 0 16.4843 0.267999 16.4003 0.643192L14.2582 8.1471C14.0482 8.89749 14.0482 9.64789 14.9302 9.64789C19.7272 9.95351 22.2245 9.04489 23.7785 9.04489C24.1145 9.04489 24.2825 9.36649 24.2825 9.68808C24.2825 10.1169 23.2481 10.7366 23.0411 10.7601C22.8341 10.7836 21.3072 11.0408 19.163 10.7601C17.0187 10.4793 16.836 10.5243 14.9873 10.6171C14.4413 10.6171 13.4182 11.1487 13.1662 12.1135L9.47017 25.4597Z" fill="#353535"/>
<path d="M19.6116 24.3569C20.7332 21.6841 20.6172 20.3838 19.7663 20.3477C18.4901 20.3116 16.5184 23.0174 15.1261 25.6902C14.9247 26.2546 14.9707 26.2711 14.7773 26.2711C14.5066 26.235 14.119 26.4623 14.3205 25.606C15.3647 23.2944 18.9542 16.1579 24.0979 16.4107C27.1919 16.5191 28.1201 18 28.0041 19.6975C27.9654 20.8895 27.54 21.973 26.4184 24.8264L24.8327 29.4496C23.6725 32.0862 23.7885 33.3865 24.6394 33.4226C25.9156 33.4949 27.656 30.786 29.087 28.1132C29.319 27.6798 29.4351 27.5353 29.6284 27.5353C29.8992 27.5714 30.0539 27.752 29.7831 28.4021C28.7389 30.7137 25.4129 37.6124 20.2691 37.3596C17.1751 37.2151 16.2856 35.7342 16.4016 34.0728C16.4403 32.8447 16.827 31.7612 17.9099 28.9078L19.6116 24.3569ZM23.4018 11.1735C23.4018 9.22312 24.8714 7.92285 27.0372 7.92285C29.203 7.92285 30.6727 9.22312 30.6727 11.1735C30.6727 13.0878 29.203 14.4242 27.0372 14.4242C24.8714 14.4242 23.4018 13.0878 23.4018 11.1735Z" fill="#353535"/>
</svg>
