<svg width="777" height="294" viewBox="0 0 777 294" fill="none" xmlns="http://www.w3.org/2000/svg">
<g filter="url(#filter0_d_5_143)">
<mask id="path-1-outside-1_5_143" maskUnits="userSpaceOnUse" x="4" y="0" width="769" height="286" fill="black">
<rect fill="white" x="4" width="769" height="286"/>
<path d="M283.502 194.996C261.362 194.996 245.025 182.123 245.025 156.58C245.025 118.365 279.203 79.7476 314.455 79.7476C332.297 79.7476 345.624 88.7985 345.624 102.475C345.624 114.946 326.923 126.008 294.68 131.237C289.951 131.841 285.437 136.064 284.577 140.288C283.932 145.316 283.502 149.741 283.502 153.764C283.502 168.648 293.175 174.078 301.773 174.078C313.596 174.078 327.568 162.614 336.166 141.294C337.885 137.07 341.11 138.277 340.25 141.495C337.026 153.764 316.175 194.996 283.502 194.996ZM288.231 122.991C287.156 127.215 289.951 130.03 294.68 128.824C313.811 123.192 320.044 112.934 320.044 100.665C320.044 89.8041 317.035 85.5804 312.521 85.5804C302.418 85.5804 293.605 103.682 288.231 122.991Z"/>
<path d="M365.317 132.377C371.335 117.493 370.69 110.454 365.962 110.252C358.653 110.051 349.195 125.136 341.457 140.221C340.167 142.635 339.522 143.439 338.447 143.238C336.943 143.238 336.083 142.031 337.588 138.612C343.176 125.74 361.232 86.9212 389.821 87.9269C407.018 88.5303 411.961 96.7767 411.747 106.029C411.532 112.867 408.092 118.298 401.429 134.187L391.971 156.915C390.896 159.53 394.98 159.53 396.055 157.116C418.195 107.236 429.373 88.3291 449.793 88.3291C459.896 88.3291 464.195 93.7597 464.195 100.397C464.195 110.454 456.457 119.505 446.354 119.505C440.765 119.505 437.756 116.689 433.457 116.689C427.653 116.689 413.251 124.131 395.41 164.558C390.466 177.229 391.971 186.28 391.756 189.699C391.541 198.147 379.504 203.376 369.616 203.376C354.569 203.376 343.176 196.739 350.485 176.626L365.317 132.377Z"/>
<path d="M466.011 133.655C472.041 117.722 471.395 110.186 466.657 109.97C459.335 109.755 449.86 125.904 442.107 142.052C440.815 144.636 440.169 145.497 439.092 145.282C437.585 145.282 436.724 143.99 438.231 140.33C443.83 126.55 461.92 84.9936 490.561 86.0702C507.789 86.7161 512.742 95.5441 512.527 105.449C512.311 112.769 508.866 118.583 502.19 135.593L492.715 159.924C491.638 162.723 495.729 162.723 496.806 160.139C518.987 106.741 530.185 86.5008 550.644 86.5008C560.765 86.5008 565.072 92.3144 565.072 99.4198C565.072 110.186 557.32 119.875 547.198 119.875C541.599 119.875 538.584 116.86 534.277 116.86C528.463 116.86 514.034 124.827 496.16 168.106C491.207 181.671 492.715 191.36 492.499 195.02C492.284 204.064 480.224 209.662 470.318 209.662C455.244 209.662 443.83 202.556 451.152 181.025L466.011 133.655Z"/>
<path d="M559.609 196.452C543.938 196.452 534.277 182.198 534.277 162.199C534.277 121.351 569.484 75.3962 601.901 75.3962C616.07 75.3962 621.008 85.6083 623.155 96.6714C623.799 101.352 625.516 101.565 627.019 97.0969L629.166 91.3526C630.883 86.8848 633.244 84.5445 639.47 84.5445C652.995 84.5445 660.509 73.2687 667.164 73.2687C669.955 73.2687 673.175 74.5452 671.672 78.3747C664.373 96.4586 656.644 114.968 650.633 133.69L645.052 149.221C639.47 165.177 640.329 172.624 645.052 172.624C652.136 172.837 661.153 156.667 668.452 140.498C669.74 137.945 670.384 137.094 671.457 137.094C672.96 137.094 673.819 138.371 672.316 142.2C666.949 155.816 650.204 197.303 621.652 196.878C604.477 196.452 599.11 187.942 599.325 178.155C599.325 170.922 603.404 165.177 610.059 148.583L611.776 144.541C612.635 141.988 611.776 141.137 610.488 141.137C609.415 141.137 608.342 141.775 607.268 143.902C595.675 167.305 582.151 196.452 559.609 196.452ZM572.49 157.518C572.49 166.028 574.637 170.283 578.93 170.283C588.806 170.283 605.336 146.668 610.703 129.435C615.641 113.266 616.07 104.33 616.07 100.501C616.07 90.2888 613.709 84.119 608.127 84.119C592.885 84.119 572.49 132.839 572.49 157.518Z"/>
<path d="M147.565 142.776C145.231 151.133 140.562 167.251 140.562 174.414C140.562 181.279 143.363 184.264 147.799 184.264C156.669 184.264 165.444 170.394 175.715 142.635C177.539 139.042 178.379 138.895 179.079 138.895C180.247 138.895 183.056 136.136 181.612 139.25C169.627 165.089 146.632 216.797 120.486 216.797C103.912 216.797 96.6758 205.754 96.6758 188.741C96.6758 176.503 100.644 160.983 106.48 140.686L127.723 65.4706C129.682 60.9253 130.474 53.591 126.796 54.9493C123.117 56.3076 112.369 56.4274 112.369 56.4274C109.924 56.4274 102.866 56.2431 102.27 55.6884C100.68 54.2103 93.0357 44.6029 95.3701 44.6029C126.417 44.6029 166.474 32.3399 179.546 4.5817C180.947 2.1939 182.581 1 183.982 1C185.616 1 186.549 2.49238 186.083 4.5817L174.177 46.3682C173.01 50.5468 173.01 54.7255 177.912 54.7255C204.574 56.4274 218.453 51.3676 227.091 51.3676C228.958 51.3676 229.892 53.1585 229.892 54.9493C229.892 57.3371 224.143 60.788 222.992 60.9188C221.842 61.0496 213.355 62.4822 201.438 60.9188C189.52 59.3554 188.504 59.6059 178.23 60.1225C175.195 60.1225 169.508 63.0828 168.108 68.4553L147.565 142.776Z"/>
<path d="M203.931 136.634C210.165 121.751 209.52 114.51 204.791 114.309C197.698 114.107 186.739 129.176 179.001 144.059C177.881 147.202 178.137 147.294 177.062 147.294C175.557 147.093 173.564 148.049 175.304 143.631C178.287 136.058 200.277 90.9774 228.866 92.3853C246.062 92.9887 251.221 101.235 250.576 110.688C250.361 117.326 247.997 123.36 241.763 139.249L232.95 164.994C226.501 179.676 227.146 186.917 231.875 187.118C238.969 187.52 248.642 172.436 256.595 157.552C257.885 155.138 258.53 154.334 259.604 154.334C261.109 154.535 261.969 155.541 260.464 159.161C254.66 172.033 236.174 210.45 207.585 209.042C190.389 208.237 185.445 199.991 186.09 190.739C186.305 183.9 188.455 177.866 194.473 161.977L203.931 136.634ZM224.997 63.2212C224.997 52.3601 233.165 45.1194 245.202 45.1194C257.24 45.1194 265.408 52.3601 265.408 63.2212C265.408 73.8812 257.24 81.3231 245.202 81.3231C233.165 81.3231 224.997 73.8812 224.997 63.2212Z"/>
<path d="M704.678 31.7722C705.343 24.2638 716.513 24.2638 717.178 31.7722L720.41 68.2873C720.787 72.5462 725.352 75.1447 729.299 73.3468L763.03 57.9785C769.996 54.8049 775.552 64.3493 769.238 68.6427L738.899 89.2732C735.294 91.7249 735.294 96.9623 738.899 99.4139L769.238 120.044C775.552 124.338 769.996 133.882 763.03 130.709L729.299 115.34C725.352 113.542 720.787 116.141 720.41 120.4L717.178 156.915C716.513 164.423 705.343 164.423 704.678 156.915L701.446 120.4C701.069 116.141 696.504 113.542 692.557 115.34L658.826 130.709C651.86 133.882 646.304 124.338 652.617 120.044L682.957 99.4139C686.562 96.9623 686.562 91.7249 682.957 89.2733L652.617 68.6427C646.304 64.3493 651.86 54.8049 658.826 57.9785L692.557 73.3468C696.504 75.1447 701.069 72.5462 701.446 68.2873L704.678 31.7722Z"/>
<path d="M59.822 154.226C60.4867 146.718 71.6573 146.718 72.322 154.226L75.5542 190.741C75.9312 195 80.4964 197.598 84.4427 195.801L118.174 180.432C125.14 177.259 130.696 186.803 124.382 191.096C118.069 195.39 94.043 211.727 94.043 211.727C90.4376 214.179 90.4376 219.416 94.043 221.868L124.382 242.498C130.696 246.792 125.14 256.336 118.174 253.162L84.4427 237.794C80.4964 235.996 75.9312 238.595 75.5542 242.854L72.322 279.369C71.6573 286.877 60.4867 286.877 59.8221 279.369L56.5898 242.854C56.2128 238.595 51.6476 235.996 47.7013 237.794L13.9696 253.162C7.00387 256.336 1.44767 246.792 7.76151 242.498L38.101 221.868C41.7064 219.416 41.7064 214.179 38.101 211.727L7.76153 191.096C1.44768 186.803 7.00387 177.259 13.9696 180.432L47.7013 195.801C51.6476 197.598 56.2128 195 56.5898 190.741L59.822 154.226Z"/>
</mask>
<path d="M283.502 194.996C261.362 194.996 245.025 182.123 245.025 156.58C245.025 118.365 279.203 79.7476 314.455 79.7476C332.297 79.7476 345.624 88.7985 345.624 102.475C345.624 114.946 326.923 126.008 294.68 131.237C289.951 131.841 285.437 136.064 284.577 140.288C283.932 145.316 283.502 149.741 283.502 153.764C283.502 168.648 293.175 174.078 301.773 174.078C313.596 174.078 327.568 162.614 336.166 141.294C337.885 137.07 341.11 138.277 340.25 141.495C337.026 153.764 316.175 194.996 283.502 194.996ZM288.231 122.991C287.156 127.215 289.951 130.03 294.68 128.824C313.811 123.192 320.044 112.934 320.044 100.665C320.044 89.8041 317.035 85.5804 312.521 85.5804C302.418 85.5804 293.605 103.682 288.231 122.991Z" fill="#FFF6D5"/>
<path d="M365.317 132.377C371.335 117.493 370.69 110.454 365.962 110.252C358.653 110.051 349.195 125.136 341.457 140.221C340.167 142.635 339.522 143.439 338.447 143.238C336.943 143.238 336.083 142.031 337.588 138.612C343.176 125.74 361.232 86.9212 389.821 87.9269C407.018 88.5303 411.961 96.7767 411.747 106.029C411.532 112.867 408.092 118.298 401.429 134.187L391.971 156.915C390.896 159.53 394.98 159.53 396.055 157.116C418.195 107.236 429.373 88.3291 449.793 88.3291C459.896 88.3291 464.195 93.7597 464.195 100.397C464.195 110.454 456.457 119.505 446.354 119.505C440.765 119.505 437.756 116.689 433.457 116.689C427.653 116.689 413.251 124.131 395.41 164.558C390.466 177.229 391.971 186.28 391.756 189.699C391.541 198.147 379.504 203.376 369.616 203.376C354.569 203.376 343.176 196.739 350.485 176.626L365.317 132.377Z" fill="#FFF6D5"/>
<path d="M466.011 133.655C472.041 117.722 471.395 110.186 466.657 109.97C459.335 109.755 449.86 125.904 442.107 142.052C440.815 144.636 440.169 145.497 439.092 145.282C437.585 145.282 436.724 143.99 438.231 140.33C443.83 126.55 461.92 84.9936 490.561 86.0702C507.789 86.7161 512.742 95.5441 512.527 105.449C512.311 112.769 508.866 118.583 502.19 135.593L492.715 159.924C491.638 162.723 495.729 162.723 496.806 160.139C518.987 106.741 530.185 86.5008 550.644 86.5008C560.765 86.5008 565.072 92.3144 565.072 99.4198C565.072 110.186 557.32 119.875 547.198 119.875C541.599 119.875 538.584 116.86 534.277 116.86C528.463 116.86 514.034 124.827 496.16 168.106C491.207 181.671 492.715 191.36 492.499 195.02C492.284 204.064 480.224 209.662 470.318 209.662C455.244 209.662 443.83 202.556 451.152 181.025L466.011 133.655Z" fill="#FFF6D5"/>
<path d="M559.609 196.452C543.938 196.452 534.277 182.198 534.277 162.199C534.277 121.351 569.484 75.3962 601.901 75.3962C616.07 75.3962 621.008 85.6083 623.155 96.6714C623.799 101.352 625.516 101.565 627.019 97.0969L629.166 91.3526C630.883 86.8848 633.244 84.5445 639.47 84.5445C652.995 84.5445 660.509 73.2687 667.164 73.2687C669.955 73.2687 673.175 74.5452 671.672 78.3747C664.373 96.4586 656.644 114.968 650.633 133.69L645.052 149.221C639.47 165.177 640.329 172.624 645.052 172.624C652.136 172.837 661.153 156.667 668.452 140.498C669.74 137.945 670.384 137.094 671.457 137.094C672.96 137.094 673.819 138.371 672.316 142.2C666.949 155.816 650.204 197.303 621.652 196.878C604.477 196.452 599.11 187.942 599.325 178.155C599.325 170.922 603.404 165.177 610.059 148.583L611.776 144.541C612.635 141.988 611.776 141.137 610.488 141.137C609.415 141.137 608.342 141.775 607.268 143.902C595.675 167.305 582.151 196.452 559.609 196.452ZM572.49 157.518C572.49 166.028 574.637 170.283 578.93 170.283C588.806 170.283 605.336 146.668 610.703 129.435C615.641 113.266 616.07 104.33 616.07 100.501C616.07 90.2888 613.709 84.119 608.127 84.119C592.885 84.119 572.49 132.839 572.49 157.518Z" fill="#FFF6D5"/>
<path d="M147.565 142.776C145.231 151.133 140.562 167.251 140.562 174.414C140.562 181.279 143.363 184.264 147.799 184.264C156.669 184.264 165.444 170.394 175.715 142.635C177.539 139.042 178.379 138.895 179.079 138.895C180.247 138.895 183.056 136.136 181.612 139.25C169.627 165.089 146.632 216.797 120.486 216.797C103.912 216.797 96.6758 205.754 96.6758 188.741C96.6758 176.503 100.644 160.983 106.48 140.686L127.723 65.4706C129.682 60.9253 130.474 53.591 126.796 54.9493C123.117 56.3076 112.369 56.4274 112.369 56.4274C109.924 56.4274 102.866 56.2431 102.27 55.6884C100.68 54.2103 93.0357 44.6029 95.3701 44.6029C126.417 44.6029 166.474 32.3399 179.546 4.5817C180.947 2.1939 182.581 1 183.982 1C185.616 1 186.549 2.49238 186.083 4.5817L174.177 46.3682C173.01 50.5468 173.01 54.7255 177.912 54.7255C204.574 56.4274 218.453 51.3676 227.091 51.3676C228.958 51.3676 229.892 53.1585 229.892 54.9493C229.892 57.3371 224.143 60.788 222.992 60.9188C221.842 61.0496 213.355 62.4822 201.438 60.9188C189.52 59.3554 188.504 59.6059 178.23 60.1225C175.195 60.1225 169.508 63.0828 168.108 68.4553L147.565 142.776Z" fill="#FFF6D5"/>
<path d="M203.931 136.634C210.165 121.751 209.52 114.51 204.791 114.309C197.698 114.107 186.739 129.176 179.001 144.059C177.881 147.202 178.137 147.294 177.062 147.294C175.557 147.093 173.564 148.049 175.304 143.631C178.287 136.058 200.277 90.9774 228.866 92.3853C246.062 92.9887 251.221 101.235 250.576 110.688C250.361 117.326 247.997 123.36 241.763 139.249L232.95 164.994C226.501 179.676 227.146 186.917 231.875 187.118C238.969 187.52 248.642 172.436 256.595 157.552C257.885 155.138 258.53 154.334 259.604 154.334C261.109 154.535 261.969 155.541 260.464 159.161C254.66 172.033 236.174 210.45 207.585 209.042C190.389 208.237 185.445 199.991 186.09 190.739C186.305 183.9 188.455 177.866 194.473 161.977L203.931 136.634ZM224.997 63.2212C224.997 52.3601 233.165 45.1194 245.202 45.1194C257.24 45.1194 265.408 52.3601 265.408 63.2212C265.408 73.8812 257.24 81.3231 245.202 81.3231C233.165 81.3231 224.997 73.8812 224.997 63.2212Z" fill="#FFF6D5"/>
<path d="M704.678 31.7722C705.343 24.2638 716.513 24.2638 717.178 31.7722L720.41 68.2873C720.787 72.5462 725.352 75.1447 729.299 73.3468L763.03 57.9785C769.996 54.8049 775.552 64.3493 769.238 68.6427L738.899 89.2732C735.294 91.7249 735.294 96.9623 738.899 99.4139L769.238 120.044C775.552 124.338 769.996 133.882 763.03 130.709L729.299 115.34C725.352 113.542 720.787 116.141 720.41 120.4L717.178 156.915C716.513 164.423 705.343 164.423 704.678 156.915L701.446 120.4C701.069 116.141 696.504 113.542 692.557 115.34L658.826 130.709C651.86 133.882 646.304 124.338 652.617 120.044L682.957 99.4139C686.562 96.9623 686.562 91.7249 682.957 89.2733L652.617 68.6427C646.304 64.3493 651.86 54.8049 658.826 57.9785L692.557 73.3468C696.504 75.1447 701.069 72.5462 701.446 68.2873L704.678 31.7722Z" fill="#FFF6D5"/>
<path d="M59.822 154.226C60.4867 146.718 71.6573 146.718 72.322 154.226L75.5542 190.741C75.9312 195 80.4964 197.598 84.4427 195.801L118.174 180.432C125.14 177.259 130.696 186.803 124.382 191.096C118.069 195.39 94.043 211.727 94.043 211.727C90.4376 214.179 90.4376 219.416 94.043 221.868L124.382 242.498C130.696 246.792 125.14 256.336 118.174 253.162L84.4427 237.794C80.4964 235.996 75.9312 238.595 75.5542 242.854L72.322 279.369C71.6573 286.877 60.4867 286.877 59.8221 279.369L56.5898 242.854C56.2128 238.595 51.6476 235.996 47.7013 237.794L13.9696 253.162C7.00387 256.336 1.44767 246.792 7.76151 242.498L38.101 221.868C41.7064 219.416 41.7064 214.179 38.101 211.727L7.76153 191.096C1.44768 186.803 7.00387 177.259 13.9696 180.432L47.7013 195.801C51.6476 197.598 56.2128 195 56.5898 190.741L59.822 154.226Z" fill="#FFF6D5"/>
<path d="M283.502 194.996C261.362 194.996 245.025 182.123 245.025 156.58C245.025 118.365 279.203 79.7476 314.455 79.7476C332.297 79.7476 345.624 88.7985 345.624 102.475C345.624 114.946 326.923 126.008 294.68 131.237C289.951 131.841 285.437 136.064 284.577 140.288C283.932 145.316 283.502 149.741 283.502 153.764C283.502 168.648 293.175 174.078 301.773 174.078C313.596 174.078 327.568 162.614 336.166 141.294C337.885 137.07 341.11 138.277 340.25 141.495C337.026 153.764 316.175 194.996 283.502 194.996ZM288.231 122.991C287.156 127.215 289.951 130.03 294.68 128.824C313.811 123.192 320.044 112.934 320.044 100.665C320.044 89.8041 317.035 85.5804 312.521 85.5804C302.418 85.5804 293.605 103.682 288.231 122.991Z" stroke="#3A3A3A" stroke-width="2" mask="url(#path-1-outside-1_5_143)"/>
<path d="M365.317 132.377C371.335 117.493 370.69 110.454 365.962 110.252C358.653 110.051 349.195 125.136 341.457 140.221C340.167 142.635 339.522 143.439 338.447 143.238C336.943 143.238 336.083 142.031 337.588 138.612C343.176 125.74 361.232 86.9212 389.821 87.9269C407.018 88.5303 411.961 96.7767 411.747 106.029C411.532 112.867 408.092 118.298 401.429 134.187L391.971 156.915C390.896 159.53 394.98 159.53 396.055 157.116C418.195 107.236 429.373 88.3291 449.793 88.3291C459.896 88.3291 464.195 93.7597 464.195 100.397C464.195 110.454 456.457 119.505 446.354 119.505C440.765 119.505 437.756 116.689 433.457 116.689C427.653 116.689 413.251 124.131 395.41 164.558C390.466 177.229 391.971 186.28 391.756 189.699C391.541 198.147 379.504 203.376 369.616 203.376C354.569 203.376 343.176 196.739 350.485 176.626L365.317 132.377Z" stroke="#3A3A3A" stroke-width="2" mask="url(#path-1-outside-1_5_143)"/>
<path d="M466.011 133.655C472.041 117.722 471.395 110.186 466.657 109.97C459.335 109.755 449.86 125.904 442.107 142.052C440.815 144.636 440.169 145.497 439.092 145.282C437.585 145.282 436.724 143.99 438.231 140.33C443.83 126.55 461.92 84.9936 490.561 86.0702C507.789 86.7161 512.742 95.5441 512.527 105.449C512.311 112.769 508.866 118.583 502.19 135.593L492.715 159.924C491.638 162.723 495.729 162.723 496.806 160.139C518.987 106.741 530.185 86.5008 550.644 86.5008C560.765 86.5008 565.072 92.3144 565.072 99.4198C565.072 110.186 557.32 119.875 547.198 119.875C541.599 119.875 538.584 116.86 534.277 116.86C528.463 116.86 514.034 124.827 496.16 168.106C491.207 181.671 492.715 191.36 492.499 195.02C492.284 204.064 480.224 209.662 470.318 209.662C455.244 209.662 443.83 202.556 451.152 181.025L466.011 133.655Z" stroke="#3A3A3A" stroke-width="2" mask="url(#path-1-outside-1_5_143)"/>
<path d="M559.609 196.452C543.938 196.452 534.277 182.198 534.277 162.199C534.277 121.351 569.484 75.3962 601.901 75.3962C616.07 75.3962 621.008 85.6083 623.155 96.6714C623.799 101.352 625.516 101.565 627.019 97.0969L629.166 91.3526C630.883 86.8848 633.244 84.5445 639.47 84.5445C652.995 84.5445 660.509 73.2687 667.164 73.2687C669.955 73.2687 673.175 74.5452 671.672 78.3747C664.373 96.4586 656.644 114.968 650.633 133.69L645.052 149.221C639.47 165.177 640.329 172.624 645.052 172.624C652.136 172.837 661.153 156.667 668.452 140.498C669.74 137.945 670.384 137.094 671.457 137.094C672.96 137.094 673.819 138.371 672.316 142.2C666.949 155.816 650.204 197.303 621.652 196.878C604.477 196.452 599.11 187.942 599.325 178.155C599.325 170.922 603.404 165.177 610.059 148.583L611.776 144.541C612.635 141.988 611.776 141.137 610.488 141.137C609.415 141.137 608.342 141.775 607.268 143.902C595.675 167.305 582.151 196.452 559.609 196.452ZM572.49 157.518C572.49 166.028 574.637 170.283 578.93 170.283C588.806 170.283 605.336 146.668 610.703 129.435C615.641 113.266 616.07 104.33 616.07 100.501C616.07 90.2888 613.709 84.119 608.127 84.119C592.885 84.119 572.49 132.839 572.49 157.518Z" stroke="#3A3A3A" stroke-width="2" mask="url(#path-1-outside-1_5_143)"/>
<path d="M147.565 142.776C145.231 151.133 140.562 167.251 140.562 174.414C140.562 181.279 143.363 184.264 147.799 184.264C156.669 184.264 165.444 170.394 175.715 142.635C177.539 139.042 178.379 138.895 179.079 138.895C180.247 138.895 183.056 136.136 181.612 139.25C169.627 165.089 146.632 216.797 120.486 216.797C103.912 216.797 96.6758 205.754 96.6758 188.741C96.6758 176.503 100.644 160.983 106.48 140.686L127.723 65.4706C129.682 60.9253 130.474 53.591 126.796 54.9493C123.117 56.3076 112.369 56.4274 112.369 56.4274C109.924 56.4274 102.866 56.2431 102.27 55.6884C100.68 54.2103 93.0357 44.6029 95.3701 44.6029C126.417 44.6029 166.474 32.3399 179.546 4.5817C180.947 2.1939 182.581 1 183.982 1C185.616 1 186.549 2.49238 186.083 4.5817L174.177 46.3682C173.01 50.5468 173.01 54.7255 177.912 54.7255C204.574 56.4274 218.453 51.3676 227.091 51.3676C228.958 51.3676 229.892 53.1585 229.892 54.9493C229.892 57.3371 224.143 60.788 222.992 60.9188C221.842 61.0496 213.355 62.4822 201.438 60.9188C189.52 59.3554 188.504 59.6059 178.23 60.1225C175.195 60.1225 169.508 63.0828 168.108 68.4553L147.565 142.776Z" stroke="#3A3A3A" stroke-width="2" mask="url(#path-1-outside-1_5_143)"/>
<path d="M203.931 136.634C210.165 121.751 209.52 114.51 204.791 114.309C197.698 114.107 186.739 129.176 179.001 144.059C177.881 147.202 178.137 147.294 177.062 147.294C175.557 147.093 173.564 148.049 175.304 143.631C178.287 136.058 200.277 90.9774 228.866 92.3853C246.062 92.9887 251.221 101.235 250.576 110.688C250.361 117.326 247.997 123.36 241.763 139.249L232.95 164.994C226.501 179.676 227.146 186.917 231.875 187.118C238.969 187.52 248.642 172.436 256.595 157.552C257.885 155.138 258.53 154.334 259.604 154.334C261.109 154.535 261.969 155.541 260.464 159.161C254.66 172.033 236.174 210.45 207.585 209.042C190.389 208.237 185.445 199.991 186.09 190.739C186.305 183.9 188.455 177.866 194.473 161.977L203.931 136.634ZM224.997 63.2212C224.997 52.3601 233.165 45.1194 245.202 45.1194C257.24 45.1194 265.408 52.3601 265.408 63.2212C265.408 73.8812 257.24 81.3231 245.202 81.3231C233.165 81.3231 224.997 73.8812 224.997 63.2212Z" stroke="#3A3A3A" stroke-width="2" mask="url(#path-1-outside-1_5_143)"/>
<path d="M704.678 31.7722C705.343 24.2638 716.513 24.2638 717.178 31.7722L720.41 68.2873C720.787 72.5462 725.352 75.1447 729.299 73.3468L763.03 57.9785C769.996 54.8049 775.552 64.3493 769.238 68.6427L738.899 89.2732C735.294 91.7249 735.294 96.9623 738.899 99.4139L769.238 120.044C775.552 124.338 769.996 133.882 763.03 130.709L729.299 115.34C725.352 113.542 720.787 116.141 720.41 120.4L717.178 156.915C716.513 164.423 705.343 164.423 704.678 156.915L701.446 120.4C701.069 116.141 696.504 113.542 692.557 115.34L658.826 130.709C651.86 133.882 646.304 124.338 652.617 120.044L682.957 99.4139C686.562 96.9623 686.562 91.7249 682.957 89.2733L652.617 68.6427C646.304 64.3493 651.86 54.8049 658.826 57.9785L692.557 73.3468C696.504 75.1447 701.069 72.5462 701.446 68.2873L704.678 31.7722Z" stroke="#3A3A3A" stroke-width="2" mask="url(#path-1-outside-1_5_143)"/>
<path d="M59.822 154.226C60.4867 146.718 71.6573 146.718 72.322 154.226L75.5542 190.741C75.9312 195 80.4964 197.598 84.4427 195.801L118.174 180.432C125.14 177.259 130.696 186.803 124.382 191.096C118.069 195.39 94.043 211.727 94.043 211.727C90.4376 214.179 90.4376 219.416 94.043 221.868L124.382 242.498C130.696 246.792 125.14 256.336 118.174 253.162L84.4427 237.794C80.4964 235.996 75.9312 238.595 75.5542 242.854L72.322 279.369C71.6573 286.877 60.4867 286.877 59.8221 279.369L56.5898 242.854C56.2128 238.595 51.6476 235.996 47.7013 237.794L13.9696 253.162C7.00387 256.336 1.44767 246.792 7.76151 242.498L38.101 221.868C41.7064 219.416 41.7064 214.179 38.101 211.727L7.76153 191.096C1.44768 186.803 7.00387 177.259 13.9696 180.432L47.7013 195.801C51.6476 197.598 56.2128 195 56.5898 190.741L59.822 154.226Z" stroke="#3A3A3A" stroke-width="2" mask="url(#path-1-outside-1_5_143)"/>
</g>
<defs>
<filter id="filter0_d_5_143" x="0.00180054" y="0" width="776.996" height="294" filterUnits="userSpaceOnUse" color-interpolation-filters="sRGB">
<feFlood flood-opacity="0" result="BackgroundImageFix"/>
<feColorMatrix in="SourceAlpha" type="matrix" values="0 0 0 0 0 0 0 0 0 0 0 0 0 0 0 0 0 0 127 0" result="hardAlpha"/>
<feOffset dy="4"/>
<feGaussianBlur stdDeviation="2"/>
<feComposite in2="hardAlpha" operator="out"/>
<feColorMatrix type="matrix" values="0 0 0 0 0 0 0 0 0 0 0 0 0 0 0 0 0 0 0.13 0"/>
<feBlend mode="normal" in2="BackgroundImageFix" result="effect1_dropShadow_5_143"/>
<feBlend mode="normal" in="SourceGraphic" in2="effect1_dropShadow_5_143" result="shape"/>
</filter>
</defs>
</svg>
