<svg width="237" height="241" viewBox="0 0 237 241" fill="none" xmlns="http://www.w3.org/2000/svg">
<path d="M123.969 5.58382L133.113 90.7078C133.567 94.9313 137.884 97.5917 141.861 96.0988L228.735 63.4866C235.099 61.0976 239.286 70.1114 233.356 73.434L159.473 114.829C155.043 117.312 155.043 123.688 159.473 126.171L233.356 167.566C239.286 170.889 235.099 179.902 228.735 177.513L141.861 144.901C137.884 143.408 133.567 146.069 133.113 150.292L123.969 235.416C123.265 241.966 113.735 241.966 113.031 235.416L103.887 150.292C103.433 146.069 99.1161 143.408 95.1393 144.901L8.26508 177.513C1.90118 179.902 -2.28643 170.889 3.64381 167.566L77.527 126.171C81.9575 123.688 81.9574 117.312 77.527 114.829L3.64376 73.4339C-2.2864 70.1114 1.90115 61.0976 8.26514 63.4866L95.1393 96.0988C99.1162 97.5917 103.433 94.9313 103.887 90.7078L113.031 5.58382C113.735 -0.966198 123.265 -0.966198 123.969 5.58382Z" fill="#FFD083" stroke="#353535"/>
</svg>
