<svg width="58" height="74" viewBox="0 0 58 74" fill="none" xmlns="http://www.w3.org/2000/svg">
<path d="M24.53 4.84443C25.1462 -0.463734 32.8538 -0.463737 33.47 4.84444L35.3595 21.1224C35.7653 24.6179 39.3038 26.8385 42.6278 25.6836L51.1422 22.7255C56.4158 20.8933 59.6467 28.4011 54.6905 30.9711L52.4799 32.1174C48.5223 34.1695 48.5223 39.8305 52.4799 41.8826L54.6905 43.0289C59.6467 45.5988 56.4158 53.1067 51.1422 51.2745L42.6278 48.3164C39.3038 47.1615 35.7653 49.3821 35.3595 52.8776L33.47 69.1556C32.8538 74.4637 25.1462 74.4637 24.53 69.1556L22.6405 52.8776C22.2347 49.3821 18.6962 47.1615 15.3722 48.3164L6.85783 51.2745C1.58418 53.1067 -1.64667 45.5989 3.30951 43.0289L5.5201 41.8826C9.47768 39.8305 9.47765 34.1695 5.52008 32.1174L3.30949 30.9711C-1.64666 28.4012 1.58416 20.8933 6.85784 22.7255L15.3722 25.6836C18.6962 26.8385 22.2347 24.6179 22.6405 21.1224L24.53 4.84443Z" fill="#FFFAE7" stroke="black"/>
</svg>
