<svg width="82" height="93" viewBox="0 0 82 93" fill="none" xmlns="http://www.w3.org/2000/svg">
<path d="M36.5252 4.88651C37.0949 -0.480057 44.9051 -0.480061 45.4749 4.88652L47.9931 28.6069C48.3738 32.1928 52.0445 34.4483 55.4155 33.1678L74.4894 25.9221C79.6856 23.9482 83.1422 31.3019 78.3069 34.0433L64.775 41.7155C61.0585 43.8226 61.0585 49.1774 64.775 51.2845L78.3069 58.9567C83.1422 61.6981 79.6856 69.0518 74.4894 67.0779L55.4155 59.8322C52.0445 58.5517 48.3738 60.8072 47.9931 64.3931L45.4748 88.1135C44.9051 93.4801 37.0949 93.4801 36.5251 88.1135L34.0069 64.3931C33.6262 60.8072 29.9555 58.5517 26.5845 59.8322L7.51057 67.0779C2.31442 69.0518 -1.14223 61.6981 3.6931 58.9567L17.225 51.2845C20.9415 49.1774 20.9415 43.8226 17.225 41.7155L3.69309 34.0433C-1.14223 31.3019 2.31442 23.9482 7.51058 25.9221L26.5845 33.1678C29.9555 34.4483 33.6262 32.1928 34.0069 28.6069L36.5252 4.88651Z" fill="#FFD083" stroke="#353535"/>
</svg>
