<svg width="175" height="183" viewBox="0 0 175 183" fill="none" xmlns="http://www.w3.org/2000/svg">
<path d="M92.9685 5.53812L99.4131 65.4779C99.8671 69.7005 104.182 72.3605 108.159 70.869L166.511 48.9814C172.876 46.594 177.061 55.6096 171.13 58.9302L123.083 85.8283C118.65 88.3101 118.65 94.6899 123.083 97.1717L171.13 124.07C177.061 127.39 172.876 136.406 166.512 134.019L108.159 112.131C104.182 110.639 99.8671 113.3 99.4131 117.522L92.9685 177.462C92.2643 184.011 82.7357 184.011 82.0315 177.462L75.5869 117.522C75.1329 113.3 70.8177 110.639 66.8414 112.131L8.48849 134.019C2.12363 136.406 -2.06139 127.39 3.87016 124.07L51.9174 97.1717C56.3505 94.6899 56.3505 88.3101 51.9174 85.8283L3.87019 58.9302C-2.06139 55.6096 2.12364 46.594 8.48847 48.9814L66.8413 70.869C70.8177 72.3605 75.1329 69.7005 75.5869 65.4779L82.0315 5.53816C82.7357 -1.01125 92.2643 -1.01125 92.9685 5.53812Z" fill="#FFD083" stroke="#353535"/>
</svg>
